TITLE ""
FILE "DISC1Track23.mp3" MP3
  TRACK 01 AUDIO
    TITLE "DISC1Track23_01"
    INDEX 01 00:00:00
  TRACK 02 AUDIO
    TITLE "DISC1Track23_02"
    INDEX 01 00:01:33
  TRACK 03 AUDIO
    TITLE "DISC1Track23_03"
    INDEX 01 00:01:51
  TRACK 04 AUDIO
    TITLE "DISC1Track23_04"
    INDEX 01 00:05:72
  TRACK 05 AUDIO
    TITLE "DISC1Track23_05"
    INDEX 01 00:10:62
  TRACK 06 AUDIO
    TITLE "DISC1Track23_06"
    INDEX 01 00:15:18
  TRACK 07 AUDIO
    TITLE "DISC1Track23_07"
    INDEX 01 00:15:31
  TRACK 08 AUDIO
    TITLE "DISC1Track23_08"
    INDEX 01 00:19:12
  TRACK 09 AUDIO
    TITLE "DISC1Track23_09"
    INDEX 01 00:22:26
  TRACK 10 AUDIO
    TITLE "DISC1Track23_10"
    INDEX 01 00:25:12
  TRACK 11 AUDIO
    TITLE "DISC1Track23_11"
    INDEX 01 00:25:28
  TRACK 12 AUDIO
    TITLE "DISC1Track23_12"
    INDEX 01 00:28:54
  TRACK 13 AUDIO
    TITLE "DISC1Track23_13"
    INDEX 01 00:32:24
  TRACK 14 AUDIO
    TITLE "DISC1Track23_14"
    INDEX 01 00:35:48
  TRACK 15 AUDIO
    TITLE "DISC1Track23_15"
    INDEX 01 00:35:64
  TRACK 16 AUDIO
    TITLE "DISC1Track23_16"
    INDEX 01 00:38:56
  TRACK 17 AUDIO
    TITLE "DISC1Track23_17"
    INDEX 01 00:41:66
  TRACK 18 AUDIO
    TITLE "DISC1Track23_18"
    INDEX 01 00:44:47
  TRACK 19 AUDIO
    TITLE "DISC1Track23_19"
    INDEX 01 00:44:60
  TRACK 20 AUDIO
    TITLE "DISC1Track23_20"
    INDEX 01 00:46:73
  TRACK 21 AUDIO
    TITLE "DISC1Track23_21"
    INDEX 01 00:49:13
  TRACK 22 AUDIO
    TITLE "DISC1Track23_22"
    INDEX 01 00:51:06
  TRACK 23 AUDIO
    TITLE "DISC1Track23_23"
    INDEX 01 00:51:17
  TRACK 24 AUDIO
    TITLE "DISC1Track23_24"
    INDEX 01 00:54:22
  TRACK 25 AUDIO
    TITLE "DISC1Track23_25"
    INDEX 01 00:57:46
  TRACK 26 AUDIO
    TITLE "DISC1Track23_26"
    INDEX 01 01:00:46
  TRACK 27 AUDIO
    TITLE "DISC1Track23_27"
    INDEX 01 01:00:54
  TRACK 28 AUDIO
    TITLE "DISC1Track23_28"
    INDEX 01 01:03:01
  TRACK 29 AUDIO
    TITLE "DISC1Track23_29"
    INDEX 01 01:05:43
  TRACK 30 AUDIO
    TITLE "DISC1Track23_30"
    INDEX 01 01:07:48
  TRACK 31 AUDIO
    TITLE "DISC1Track23_31"
    INDEX 01 01:07:58
  TRACK 32 AUDIO
    TITLE "DISC1Track23_32"
    INDEX 01 01:10:42
  TRACK 33 AUDIO
    TITLE "DISC1Track23_33"
    INDEX 01 01:13:07
  TRACK 34 AUDIO
    TITLE "DISC1Track23_34"
    INDEX 01 01:15:24
  TRACK 35 AUDIO
    TITLE "DISC1Track23_35"
    INDEX 01 01:15:32
  TRACK 36 AUDIO
    TITLE "DISC1Track23_36"
    INDEX 01 01:16:72
  TRACK 37 AUDIO
    TITLE "DISC1Track23_37"
    INDEX 01 01:19:14
  TRACK 38 AUDIO
    TITLE "DISC1Track23_38"
    INDEX 01 01:21:07
  TRACK 39 AUDIO
    TITLE "DISC1Track23_39"
    INDEX 01 01:21:22
  TRACK 40 AUDIO
    TITLE "DISC1Track23_40"
    INDEX 01 01:23:64
  TRACK 41 AUDIO
    TITLE "DISC1Track23_41"
    INDEX 01 01:26:51
  TRACK 42 AUDIO
    TITLE "DISC1Track23_42"
    INDEX 01 01:29:04
  TRACK 43 AUDIO
    TITLE "DISC1Track23_43"
    INDEX 01 01:29:20
  TRACK 44 AUDIO
    TITLE "DISC1Track23_44"
    INDEX 01 01:36:18
  TRACK 45 AUDIO
    TITLE "DISC1Track23_45"
    INDEX 01 01:42:50
  TRACK 46 AUDIO
    TITLE "DISC1Track23_46"
    INDEX 01 01:48:60
